<svg xmlns="http://www.w3.org/2000/svg" xmlns:xlink="http://www.w3.org/1999/xlink" width="222.783" height="323.556" viewBox="0 0 167.087 242.667" xmlns:v="https://vecta.io/nano"><defs><filter color-interpolation-filters="sRGB" id="A" x="-.139" width="1.279" y="-.162" height="1.325"><feGaussianBlur stdDeviation="9.511"/></filter><radialGradient r="81.903" fy="511.223" fx="171.487" cy="511.223" cx="171.487" gradientTransform="matrix(1.1529891,-0.67391547,0.39482025,0.67549043,-233.63262,270.40076)" id="B" gradientUnits="userSpaceOnUse"><stop offset="0" stop-color="#fff" stop-opacity=".435"/><stop offset="1" stop-opacity="0"/></radialGradient><radialGradient id="C" gradientTransform="matrix(-1.1224159,0.00551393,-0.00908973,-1.8503101,-0.0293938,-10.227695)" cx="0" cy="-3.234" fx="0" fy="-3.234" r="8" gradientUnits="userSpaceOnUse"><stop offset="0" stop-color="#df0000"/><stop offset="1" stop-color="#df0000" stop-opacity=".641"/></radialGradient><path id="D" d="M21.758 37.257c-3.127-4.23-4.79-8.529-4.79-8.529s-1.663 4.299-4.79 8.529-7.025 6.979-7.025 6.979 3.897 2.749 7.025 6.98 4.79 8.527 4.79 8.527 1.663-4.299 4.79-8.527 7.025-6.98 7.025-6.98-3.897-2.75-7.025-6.979z"/></defs><path d="M166.837 235.548a6.89 6.89 0 0 1-6.871 6.869H7.111c-3.775 0-6.861-3.092-6.861-6.869V7.12A6.89 6.89 0 0 1 7.111.25h152.855a6.89 6.89 0 0 1 6.871 6.87v228.428z" fill="#fff" stroke-width=".5" stroke="#000"/><text xml:space="preserve" x="6.246" y="28.013" font-size="32" letter-spacing="0" word-spacing="0" fill="#df0000" font-family="Bitstream Vera Sans"><tspan x="6.246" y="28.013" font-weight="normal" font-family="Arial">A</tspan></text><text xml:space="preserve" x="-161.088" y="-213.515" transform="scale(-1)" font-size="32" letter-spacing="0" word-spacing="0" fill="#df0000" font-family="Bitstream Vera Sans"><tspan x="-161.088" y="-213.515" font-weight="normal" font-family="Arial">A</tspan></text><g transform="matrix(.170014 0 0 .170014 19.517107 29.794341)"><path d="M3.243-4.725C1.126-7.589 0-10.5 0-10.5s-1.126 2.911-3.243 5.775S-8 0-8 0s2.639 1.861 4.757 4.726S0 10.5 0 10.5s1.126-2.911 3.243-5.774S8 0 8 0 5.361-1.862 3.243-4.725z" fill="url(#C)" transform="matrix(35.005102 0 0 35.005102 369.18369 512.27289)"/><path transform="matrix(-1.465212 .236943 -.245381 -1.517391 660.30624 1148.701)" d="M117.301 604.266s-8.068-94.95 22.857-122.857c34.761-31.369 140-11.429 140-11.429s-71.54 24.838-100 48.571c-27.21 22.692-62.857 85.714-62.857 85.714z" fill="url(#B)" filter="url(#A)"/></g><g fill="#df0000"><use xlink:href="#D"/><use xlink:href="#D" x="133.653" y="154.268"/></g></svg>