<svg xmlns="http://www.w3.org/2000/svg" xmlns:xlink="http://www.w3.org/1999/xlink" width="222.783" height="323.556" viewBox="0 0 167.087 242.667" xmlns:v="https://vecta.io/nano"><style><![CDATA[.B{fill:#df0000}.C{font-size:32px}.D{word-spacing:0px}.E{font-family:Bitstream Vera Sans}.F{font-weight:400}.G{font-family:Arial}]]></style><path d="M166.837 235.548a6.89 6.89 0 0 1-6.871 6.869H7.111c-3.775 0-6.861-3.092-6.861-6.869V7.12A6.89 6.89 0 0 1 7.111.25h152.855a6.89 6.89 0 0 1 6.871 6.87v228.428z" fill="#fff" stroke-width=".5" stroke="#000"/><text xml:space="preserve" x="0.408" y="26.413" letter-spacing="0" class="B C D E"><tspan x="0.408" y="26.413" font-weight="normal" class="G">1</tspan></text><g class="B"><use xlink:href="#B"/><use xlink:href="#B" x="133.653" y="154.268"/><use xlink:href="#C"/><path d="M62.523 19.389c-5.479-7.413-8.395-14.947-8.395-14.947s-2.915 7.534-8.395 14.947S33.422 31.62 33.422 31.62s6.83 4.818 12.312 12.233c5.479 7.41 8.395 14.944 8.395 14.944s2.915-7.534 8.395-14.944c5.482-7.415 12.312-12.233 12.312-12.233s-6.83-4.82-12.312-12.231z"/><use xlink:href="#C" y="-59.732"/><use xlink:href="#C" y="-119.563"/><use xlink:href="#C" x="58.768"/><path d="M121.291 19.389c-5.479-7.413-8.395-14.947-8.395-14.947s-2.915 7.534-8.395 14.947S92.19 31.62 92.19 31.62s6.83 4.818 12.312 12.233c5.479 7.41 8.395 14.944 8.395 14.944s2.915-7.534 8.395-14.944c5.482-7.415 12.312-12.233 12.312-12.233s-6.83-4.82-12.312-12.231z"/><use xlink:href="#C" x="58.768" y="-59.732"/><path d="M121.291 79.121c-5.479-7.413-8.395-14.947-8.395-14.947s-2.915 7.534-8.395 14.947S92.19 91.352 92.19 91.352s6.83 4.818 12.312 12.233c5.479 7.41 8.395 14.944 8.395 14.944s2.915-7.534 8.395-14.944c5.482-7.415 12.312-12.233 12.312-12.233s-6.83-4.82-12.312-12.231z"/><use xlink:href="#C" x="29.085" y="-149.086"/><use xlink:href="#C" x="28.88" y="-30.076"/><text xml:space="preserve" x="13.216" y="26.376" letter-spacing="0" class="C D E"><tspan x="13.216" y="26.376" font-weight="normal" class="G">0</tspan></text><text xml:space="preserve" x="-166.435" y="-215.984" transform="scale(-1)" letter-spacing="0" class="C D E"><tspan x="-166.435" y="-215.984" font-weight="normal" class="G">1</tspan></text><text xml:space="preserve" x="-153.627" y="-216.021" transform="scale(-1)" letter-spacing="0" class="C D E"><tspan x="-153.627" y="-216.021" font-weight="normal" class="G">0</tspan></text></g><defs ><path id="B" d="M21.758 37.257c-3.127-4.23-4.79-8.529-4.79-8.529s-1.663 4.299-4.79 8.529-7.025 6.979-7.025 6.979 3.897 2.749 7.025 6.98 4.79 8.527 4.79 8.527 1.663-4.299 4.79-8.527 7.025-6.98 7.025-6.98-3.897-2.75-7.025-6.979z"/><path id="C" d="M62.523 198.684c-5.479-7.413-8.395-14.947-8.395-14.947s-2.915 7.534-8.395 14.947-12.312 12.231-12.312 12.231 6.83 4.818 12.312 12.233c5.479 7.41 8.395 14.944 8.395 14.944s2.915-7.534 8.395-14.944c5.482-7.415 12.312-12.233 12.312-12.233s-6.83-4.82-12.312-12.231z"/></defs></svg>