<svg xmlns="http://www.w3.org/2000/svg" xmlns:xlink="http://www.w3.org/1999/xlink" width="222.783" height="323.556" viewBox="0 0 167.087 242.667" xmlns:v="https://vecta.io/nano"><path d="M166.837 235.548a6.89 6.89 0 0 1-6.871 6.869H7.111c-3.775 0-6.861-3.092-6.861-6.869V7.12A6.89 6.89 0 0 1 7.111.25h152.855a6.89 6.89 0 0 1 6.871 6.87v228.428z" fill="#fff" stroke-width=".5" stroke="#000"/><text xml:space="preserve" x="7.846" y="26.413" font-size="32" letter-spacing="0" word-spacing="0" fill="#df0000" font-family="Bitstream Vera Sans"><tspan x="7.846" y="26.413" font-weight="normal" font-family="Arial">2</tspan></text><text xml:space="preserve" x="-159.488" y="-216.715" transform="scale(-1)" font-size="32" letter-spacing="0" word-spacing="0" fill="#df0000" font-family="Bitstream Vera Sans"><tspan x="-159.488" y="-216.715" font-weight="normal" font-family="Arial">2</tspan></text><g fill="#df0000"><use xlink:href="#B"/><use xlink:href="#B" x="133.653" y="154.268"/><path d="M91.323 171.791c-5.479-7.413-8.395-14.947-8.395-14.947s-2.915 7.534-8.395 14.947-12.312 12.231-12.312 12.231 6.83 4.818 12.312 12.233 8.395 14.944 8.395 14.944 2.915-7.534 8.395-14.944 12.312-12.233 12.312-12.233-6.83-4.82-12.312-12.231zm0-128.402c-5.479-7.413-8.395-14.947-8.395-14.947s-2.915 7.534-8.395 14.947S62.222 55.62 62.222 55.62s6.83 4.818 12.312 12.233c5.479 7.41 8.395 14.944 8.395 14.944s2.915-7.534 8.395-14.944c5.482-7.415 12.312-12.233 12.312-12.233s-6.83-4.82-12.312-12.231z"/></g><defs ><path id="B" d="M21.758 37.257c-3.127-4.23-4.79-8.529-4.79-8.529s-1.663 4.299-4.79 8.529-7.025 6.979-7.025 6.979 3.897 2.749 7.025 6.98 4.79 8.527 4.79 8.527 1.663-4.299 4.79-8.527 7.025-6.98 7.025-6.98-3.897-2.75-7.025-6.979z"/></defs></svg>