<svg xmlns="http://www.w3.org/2000/svg" width="222.783" height="323.556" viewBox="0 0 167.087 242.667" xmlns:v="https://vecta.io/nano"><path d="M166.837 235.548a6.89 6.89 0 0 1-6.871 6.869H7.111c-3.775 0-6.861-3.092-6.861-6.869V7.12A6.89 6.89 0 0 1 7.111.25h152.855a6.89 6.89 0 0 1 6.871 6.87v228.428z" fill="#fff" stroke-width=".5" stroke="#000"/><text xml:space="preserve" x="6.246" y="28.013" font-size="32" letter-spacing="0" word-spacing="0" fill="#000" font-family="Bitstream Vera Sans"><tspan x="6.246" y="28.013" font-weight="normal" font-family="Arial">A</tspan></text><path d="M28.981 49.346c-.365-5.596-11.687-16.128-12.052-18.763-.365 2.633-11.687 13.166-12.052 18.763-.255 3.956 2.557 5.596 5.114 5.596 2.769-.03 5.055-3.863 5.843-4.608.365.988-2.418 9.217-3.287 9.217h8.766c-.869 0-3.652-8.229-3.287-9.217.69.685 2.711 4.494 5.844 4.608 2.556-.001 5.366-1.64 5.111-5.596z"/><text xml:space="preserve" x="-160.908" y="-215.097" transform="scale(-1)" font-size="32" letter-spacing="0" word-spacing="0" fill="#000" font-family="Bitstream Vera Sans"><tspan x="-160.908" y="-215.097" font-weight="normal" font-family="Arial">A</tspan></text><path d="M138.173 193.764c.365 5.596 11.687 16.128 12.052 18.763.365-2.633 11.687-13.166 12.052-18.763.255-3.956-2.557-5.596-5.114-5.596-2.769.03-5.055 3.863-5.843 4.608-.365-.988 2.418-9.217 3.287-9.217h-8.766c.869 0 3.652 8.229 3.287 9.217-.69-.685-2.711-4.494-5.844-4.608-2.556.001-5.366 1.64-5.111 5.596zM79.5 183.521l-14.375-.151c-.081-.078.556-.684 1.416-1.346 3.13-2.41 5.827-6.427 8.939-13.312 2.139-4.732 2.827-6.631 3.538-9.761 1.137-5.009 1.1-8.437-.106-9.882l-.578-.693-2.33 2.448c-2.59 2.721-5.961 5.038-9.722 6.683-4.12 1.802-6.785 2.378-11.31 2.446-3.568.053-4.337-.04-6.887-.834-6.438-2.004-11.655-6.595-14.694-12.929-1.831-3.816-2.298-5.93-2.387-10.787-.072-3.929.014-4.693.907-8.117 1.395-5.347 4.254-11.962 7.164-16.579 3.537-5.612 11.693-16.027 20.313-25.941 7.092-8.157 9.95-11.791 14.898-18.945 5.264-7.612 7.354-11.261 8.351-14.582.399-1.328.797-2.414.885-2.415s.604 1.319 1.146 2.932c2.156 6.414 7.733 15.195 15.82 24.905l9.316 10.942c12.066 14.047 17.16 21.119 21.66 30.072 3.485 6.932 4.859 12.276 4.695 18.249-.21 7.634-2.655 13.027-8.322 18.356-2.334 2.195-5.915 4.274-8.761 5.087-.88.251-3.262.574-5.293.718-6.082.43-10.616-.762-16.935-4.451-2.963-1.73-6.312-4.525-7.238-6.039-.748-1.224-1.321-1.146-1.883.256-.944 2.358-1.095 4.482-.521 7.315 1.792 8.834 7.522 20.148 12.442 24.569l1.988 1.786-3.955.004c-2.175.003-10.358.001-18.184-.004zm12.99-4.672c-1.542-1.233-4.883-5.992-6.538-9.312-1.721-3.453-2.247-5.989-1.76-8.486l.527-2.701c.105-.539-.12-1.379-.628-2.343l-.792-1.503-.888 1.691-.888 1.691.586 1.557c.865 2.297.658 5.634-.505 8.148-1.47 3.176-6.396 10.49-7.665 11.38-1.486 1.042-.826 1.008 2.005-.103 2.04-.801 2.691-.897 6.292-.931 4.137-.039 7.912.498 9.559 1.359 1.532.801 1.932.544.695-.445zm-5.933-2.066c-1.911-.417-6.729-.297-8.513.213-.791.226-.789.217.175-.875 1.327-1.502 2.166-3.093 3.738-7.09 1.209-3.074 1.364-3.319 1.649-2.596.173.439.86 2.284 1.526 4.099 1.167 3.178 1.893 4.507 3.299 6.033.737.8.779.795-1.873.216zm31.806-21.739c4.476-1.707 8.628-5.698 10.81-10.392 1.373-2.954 1.861-4.737 2.277-8.32.583-5.024-.265-9.532-2.997-15.929-3.611-8.455-8.685-15.408-19.291-26.43-16.124-16.756-20.119-21.97-23.913-31.208-.649-1.581-1.288-3.488-1.42-4.237s-.335-1.357-.452-1.35-.582 1.223-1.033 2.704c-2.715 8.906-8.835 17.488-23.073 32.356-9.924 10.364-11.469 12.202-15.537 18.497-5.315 8.223-7.765 14.841-8.039 21.719-.433 10.846 5.25 20.117 13.9 22.675 5.289 1.564 12.55.295 18.271-3.193 4.596-2.802 6.936-5.115 8.705-8.602.569-1.121 1.086-2.101 1.15-2.179s.64.348 1.281.945c1.123 1.045 3.089 4.385 3.904 6.63l.392 1.08 1.055-2.522c.701-1.674 1.632-3.164 2.772-4.433l1.717-1.911 1.148 2.285c2.619 5.215 9.929 10.372 17.373 12.258 3.182.806 8.258.602 10.998-.443zm-8.513-.248c-2.71-.322-4.411-.841-7.239-2.21-7.434-3.6-11.354-7.601-12.114-12.366-.134-.838-.394-1.521-.578-1.518-1.091.016-4.593 4.072-5.8 6.717-.274.6-.623 1.092-.776 1.095s-.598-.606-.99-1.351c-1.133-2.158-3.246-4.932-4.412-5.795-1.177-.871-1.173-.873-1.732.986-.598 1.988-1.823 4.386-3.017 5.903-1.218 1.548-6.374 5.222-9.021 6.428-5.947 2.71-12.95 2.738-17.656.071-4.032-2.285-7.05-6.518-8.552-11.993-2.123-7.739-.942-15.025 3.849-23.745 4.413-8.031 7.138-11.648 15.262-20.254 13.469-14.267 20.243-23.052 24.166-31.34 1.63-3.444 1.992-3.268 1.07.521-1.575 6.473-12.141 22.15-28.279 41.957-4.349 5.338-9.035 13.187-10.472 17.54-1.974 5.98-2.259 10.796-.931 15.721 1.887 7.001 5.788 11.042 11.495 11.909 8.277 1.258 15.681-4.739 20.583-16.672l1.183-2.881 1.623 2.43c1.761 2.637 5.339 6.392 6.081 6.381.569-.008 4.757-4.507 6.135-6.591.558-.843 1.094-1.538 1.191-1.544s.378.528.624 1.188 1.025 2.329 1.73 3.712c4.995 9.793 11.616 14.596 19.275 13.98 3.406-.274 5.868-1.722 8.248-4.852 2.579-3.391 3.798-6.562 4.213-10.955.461-4.879-.77-10.259-3.791-16.581-1.694-3.543-6.705-10.765-10.683-15.396-7.777-9.053-20.649-27.077-24.186-33.866-.917-1.76-2.1-5.62-2.389-7.797-.234-1.759.124-1.401 1.066 1.067 1.535 4.023 5.327 10.038 9.525 15.109 2.631 3.179 5.534 6.381 12.821 14.143 4.696 5.002 7.671 8.441 11.04 12.762 5.762 7.389 10.498 17.183 11.636 24.065 1.112 6.718-1.573 15.125-6.249 19.565-1.824 1.732-5.447 3.616-8.131 4.227-2.285.52-3.09.552-5.819.228zm-2.841-3.603c-2.727-.992-5.001-2.462-6.811-4.402-3.217-3.449-6.565-9.253-8.095-14.034-.801-2.502-1.082-2.866-1.4-1.812-.653 2.169-6.35 10.413-7.203 10.423-.605.008-3.242-3.41-5.753-7.456l-2.459-3.902c-.051-.05-.387 1.078-.746 2.505-1.642 6.524-6.544 14.355-10.819 17.286-6.034 4.136-14.975 2.314-17.701-3.608-.726-1.577-1.347-4.888-.918-4.894.147-.003.27.144.272.324.011.714 1.842 2.958 3.089 3.786 4.894 3.247 9.614 2.718 15.057-1.687 4.255-3.443 8.195-11.212 6.686-13.182-.391-.51-.425-.432-.301.692.184 1.67-.543 2.783-2.486 3.804-.84.441-1.666 1.059-1.836 1.373-.283.524-.386.499-1.245-.299-.515-.478-1.276-.865-1.692-.859-.743.011-.745.022-.145.666.729.782.853 3.335.253 5.204-.483 1.506-2.944 4.158-4.633 4.995-2.833 1.403-7.339.471-9.633-1.992-3.286-3.53-1.997-9.456 2.597-11.936 2.206-1.191 5.338-.742 6.996 1.003.777.818.783.86.271 1.976-.716 1.561-1.222 1.661-2.434.485-.951-.923-1.17-.991-2.641-.828-2.785.31-4.508 2.847-3.733 5.498.444 1.519 2.769 3.598 4.322 3.866 4.075.702 7.884-3.797 6.854-8.094-.321-1.339-.268-1.8.462-3.985 1.6-4.794.705-12.203-1.846-15.287-.504-.61-.512-.6-.198.241.34.91.18 1.848-.317 1.855-.158.003-.289-.147-.292-.333s-.607-.596-1.343-.912c-1.677-.721-2.968-.34-3.678 1.084-.465.933-.46.97.101.731 1.329-.569 1.799-.577 3.006-.055 2.339 1.013 3.749 3.86 3.791 7.656.025 2.296-.477 4.989-.931 4.995-.093.002-.718-.419-1.389-.934-1.615-1.241-2.633-1.579-4.636-1.54-3.343.064-6.596 2.542-8.368 6.376-.574 1.241-1.042 2.622-1.041 3.069.002.774-.016.782-.387.176-.537-.879-.501-5.9.062-8.678 1.417-6.985 6.993-17.112 13.367-24.278l1.715-1.928.232 3.024c.182 2.371.416 3.371 1.085 4.631 1.04 1.959 3.309 4.051 4.953 4.567 1.796.563 4.64.225 5.847-.695 1.256-.958 2.147-2.935 1.84-4.085-.161-.604-.111-.815.171-.725.681.216 1.616 1.668 1.939 3.013.33 1.372.023 4.421-.558 5.546s-2.452 2.35-4.376 2.865c-2.934.785-3.534 1.124-4.071 2.299-.627 1.373-.323 3.22.609 3.7.627.324.632.308.117-.403-.683-.945-.676-1.102.091-1.892.545-.562 1.067-.66 3.766-.706 3.959-.068 5.432-.676 6.571-2.713 1.247-2.229 1.53-3.841 1.079-6.135-.712-3.62-2.622-6.612-4.942-7.745-1.933-.944-3.486-.964-4.6-.06-1.01.819-1.113 1.456-.15.921.979-.543 2.139.063 2.733 1.428.419.962.426 1.267.055 2.194-1.229 3.069-4.825 3.36-8 .648-2.029-1.733-2.929-3.621-2.952-6.195-.033-3.586 1.769-6.553 4.923-8.108 1.256-.619 4.043-.694 5.635-.151 4.443 1.514 8.515 7.152 10.008 13.855.553 2.483 1.951 13.204 1.979 15.174.011.801-.24 1.81-.606 2.431-.795 1.348-.781 2.22.041 2.718.357.215.653.718.659 1.118.006.431.207.723.493.719s.478-.302.471-.733c-.006-.399.276-.911.626-1.137.773-.499.797-1.386.076-2.731-.441-.823-.511-1.575-.381-4.076.209-4.004 1.139-10.505 1.927-13.483 1.669-6.302 5.231-11.649 8.918-13.39 3.004-1.419 7.02-.473 9.387 2.21 1.505 1.706 1.914 3.015 1.815 5.807-.07 1.964-.251 2.612-1.176 4.203-1.476 2.539-3.58 3.869-5.867 3.708-1.327-.093-1.766-.3-2.67-1.257-.853-.903-1.086-1.421-1.101-2.45-.026-1.72 1.149-3.033 2.548-2.849 1.161.153 1.211-.219.123-.91-1.297-.822-3.629-.412-5.497.966-1.66 1.225-3.381 3.839-3.92 5.956-.476 1.866-.099 5.285.774 7.022 1.201 2.39 2.199 2.869 6.241 2.997 3.033.096 3.537.196 4.185.825s.685.802.326 1.396c-.34.563-.338.655.014.532.617-.215 1.011-1.642.738-2.667-.408-1.53-1.791-2.555-3.98-2.951-1.091-.197-2.367-.652-2.836-1.009-2.514-1.917-3.199-7.167-1.267-9.701.881-1.155 1.24-1.082 1.049.214-.203 1.381.544 2.791 2.079 3.926.921.681 1.605.889 3.148.959 2.484.112 3.934-.499 5.838-2.46 2.051-2.113 2.735-3.918 2.715-7.158-.009-1.457.087-2.652.214-2.655.397-.009 4.82 5.692 7.639 9.847 5.977 8.811 8.528 15.86 8.079 22.325-.202 2.91-.65 3.631-.988 1.589-.442-2.676-3.31-6.575-5.925-8.056-1.134-.642-1.878-.808-3.601-.805-2.338.005-3.72.533-5.246 2.002l-.843.812-.442-.749c-.282-.478-.453-1.794-.473-3.641-.036-3.37.645-5.355 2.517-7.335 1.484-1.57 2.723-1.876 3.972-.981l.938.672-.014-.924c-.031-2.063-2.873-2.824-4.866-1.304l-1.012.772.128-.974c.166-1.263-.388-1.06-1.456.534-1.242 1.853-1.769 3.833-1.903 7.155-.103 2.527.003 3.47.608 5.454.403 1.32.733 2.797.735 3.283a158.13 158.13 0 0 1-.034 2.732c-.061 3.065 1.295 5.366 3.821 6.486 3.718 1.649 7.542-.681 7.484-4.561-.027-1.82-.755-2.974-2.387-3.788-1.208-.602-3.232-.377-4.128.459-.601.56-.657.546-1.64-.408-1.003-.973-1.01-1.001-.472-1.849 1.134-1.788 5.145-2.76 7.167-1.736.481.243 1.417.989 2.08 1.656 3.209 3.23 3.457 7.606.619 10.929-2.285 2.675-4.653 3.282-8.277 2.121-2.613-.837-4.235-2.124-5.254-4.168-1.437-2.881-1.443-3.914-.044-6.735.343-.692-1.401-.085-2.24.779-.743.765-1.037.902-1.247.581-.151-.231-.279-.523-.284-.649s-.723-.681-1.596-1.234c-2.233-1.415-3.149-3.435-2.343-5.169.317-.683.312-.685-.162-.076-1.078 1.388-.679 3.647 1.304 7.37 3.392 6.371 8.678 10.271 14.246 10.51 2.255.097 2.711.013 4.277-.782 1.801-.915 3.588-2.753 4.617-4.75l.584-1.134.028 1.124c.06 2.418-2.598 6.838-5.113 8.506-1.47.975-1.832 1.067-4.666 1.193-2.591.115-3.385.023-5.067-.589zm3.408-8.52c-.92-.165-2.358-1.569-2.924-2.856-.45-1.022-.665-3.616-.3-3.621.694-.01 2.061 1.213 2.599 2.328.564 1.167.764 1.318 1.728 1.304 1.311-.019 1.989-.84 1.412-1.708a1.32 1.32 0 0 0-1.051-.521c-.751.039-.9-.475-.311-1.081.408-.42 1.797-.538 2.65-.226.705.259 1.487 1.783 1.504 2.932.016 1.107-.94 2.468-2.215 3.152-.891.478-1.672.553-3.092.298zm-58.103-.881c-1.506-1.349-1.824-2.856-.918-4.353.723-1.194 1.942-1.647 3.085-1.147.959.42 1.093 1.334.163 1.105-.461-.113-.738.076-1.005.687-.311.71-.275.943.223 1.478.326.349.921.63 1.323.624.823-.012 2.041-1.409 2.028-2.323-.005-.33.19-.602.434-.606s.619-.226.835-.495c.653-.812.956-.564.976.799.044 2.931-1.548 4.863-4.224 5.125-1.612.158-1.815.096-2.919-.894zm30.625-23.633c-.017-.751-.244-1.724-.503-2.162-.662-1.119-.617-1.644.244-2.848l.752-1.052.749 1.173c.674 1.056.708 1.273.341 2.179-.225.553-.463 1.694-.529 2.534-.16 2.026-1.008 2.168-1.054.176zm-1.688-7.927c-.694-3.272-2.796-6.86-5.647-9.639-3.009-2.934-5.472-4.207-7.464-3.858-1.062.186-1.253.133-1.251-.347.005-.893.722-2.007 1.738-2.698 1.842-1.254 3.202-.761 6.138 2.223 4.287 4.357 7.364 10.301 7.424 14.343.033 2.208-.467 2.195-.938-.023zm3.194.191c-.051-3.897 2.669-9.734 6.467-13.882 3.743-4.088 6.26-4.729 8.368-2.13.376.464.688 1.154.694 1.534.009.628-.157.692-1.837.707-2.581.023-4.511 1.085-7.442 4.094-2.831 2.908-4.778 6.311-5.329 9.316-.206 1.122-.492 2.042-.636 2.044s-.272-.755-.284-1.683zm-1.366-5.167c-.042-2.814-.654-6.043-2.65-13.975-1.925-7.652-1.672-11.795 1.031-16.891.6-1.131 1.257-2.684 1.46-3.451l.369-1.394.416 1.279c.229.704.945 2.374 1.593 3.712 2.522 5.211 2.861 8.796 1.393 14.732-1.28 5.178-2.322 10.367-2.816 14.025-.473 3.505-.763 4.219-.796 1.963zm-3.788-6.3c-.499-.73-1.755-2.338-2.792-3.574-2.306-2.748-3.254-4.514-3.529-6.573-.365-2.734.787-4.444 2.728-4.048 1.875.383 2.753 2.687 3.685 9.674.384 2.878.786 5.369.893 5.537s.133.306.058.307-.545-.595-1.044-1.324zm7.391.426c.068-.531.264-2.414.434-4.184.549-5.71 1.585-8.859 3.336-10.146 1.174-.862 1.697-.869 2.478-.029.484.52.626 1.143.642 2.803.025 2.713-.444 3.71-3.548 7.55-1.347 1.667-2.678 3.467-2.958 4.002l-.508.972zM71.79 91.699c-.918-.577-1.543-.584-2.914-.035-.487.195-.469.059.139-1.045a18.8 18.8 0 0 1 1.781-2.544l1.082-1.275.022 1.459a10.05 10.05 0 0 0 .509 2.778c.268.725.458 1.309.421 1.296s-.504-.298-1.04-.634zm22.477-.818a55.41 55.41 0 0 0 .404-2.846l.18-1.587.853 1.251a30.83 30.83 0 0 1 1.408 2.287l.555 1.036-1.061.016c-.584.009-1.399.26-1.813.559l-.751.543zm-17.259-7.918c-.422-.341-1.041-.617-1.375-.612s-.608-.053-.609-.129c-.004-.246 2.494-4.029 2.781-4.212.155-.099.184.384.066 1.088-.117.696-.131 1.994-.032 2.884s.125 1.615.059 1.61-.467-.288-.889-.629zm11.924-2.122c.007-1.398.044-2.543.082-2.544.129-.005 2.72 3.779 2.723 3.976.002.108-.148.107-.332-.003s-.819.095-1.41.456l-1.075.656z"/></svg>