<svg xmlns="http://www.w3.org/2000/svg" xmlns:xlink="http://www.w3.org/1999/xlink" width="222.783" height="323.556" viewBox="0 0 167.087 242.667" xmlns:v="https://vecta.io/nano"><path d="M166.837 235.548a6.89 6.89 0 0 1-6.871 6.869H7.111c-3.775 0-6.861-3.092-6.861-6.869V7.12A6.89 6.89 0 0 1 7.111.25h152.855a6.89 6.89 0 0 1 6.871 6.87v228.428z" fill="#fff" stroke-width=".5" stroke="#000"/><text xml:space="preserve" x="8.547" y="28.013" font-size="32" letter-spacing="0" word-spacing="0" fill="#000" font-family="Bitstream Vera Sans"><tspan x="8.547" y="28.013" font-weight="normal" font-family="Arial">3</tspan></text><path d="M28.981 49.346c-.365-5.596-11.687-16.128-12.052-18.763-.365 2.633-11.687 13.166-12.052 18.763-.255 3.956 2.557 5.596 5.114 5.596 2.769-.03 5.055-3.863 5.843-4.608.365.988-2.418 9.217-3.287 9.217h8.766c-.869 0-3.652-8.229-3.287-9.217.69.685 2.711 4.494 5.844 4.608 2.556-.001 5.366-1.64 5.111-5.596z"/><use xlink:href="#B"/><text xml:space="preserve" x="-158.978" y="-215.124" transform="scale(-1)" font-size="32" letter-spacing="0" word-spacing="0" fill="#000" font-family="Bitstream Vera Sans"><tspan x="-158.978" y="-215.124" font-weight="normal" font-family="Arial">3</tspan></text><path d="M138.173 193.764c.365 5.596 11.687 16.128 12.052 18.763.365-2.633 11.687-13.166 12.052-18.763.255-3.956-2.557-5.596-5.114-5.596-2.769.03-5.055 3.863-5.843 4.608-.365-.988 2.418-9.217 3.287-9.217h-8.766c.869 0 3.652 8.229 3.287 9.217-.69-.685-2.711-4.494-5.844-4.608-2.556.001-5.366 1.64-5.111 5.596zm-75.877-7.507c.641 9.825 20.519 28.317 21.16 32.943.641-4.623 20.519-23.115 21.16-32.943.448-6.945-4.49-9.825-8.979-9.825-4.861.052-8.875 6.782-10.258 8.091-.641-1.734 4.246-16.182 5.771-16.182H75.759c1.526 0 6.412 14.448 5.771 16.182-1.211-1.202-4.76-7.89-10.261-8.091-4.487.002-9.421 2.879-8.974 9.825z"/><use xlink:href="#B" x="0.084" y="69.701"/><defs ><path id="B" d="M104.571 56.881c-.641-9.825-20.519-28.317-21.16-32.943-.641 4.623-20.519 23.115-21.16 32.943-.448 6.945 4.49 9.825 8.979 9.825 4.861-.052 8.875-6.782 10.258-8.091.641 1.734-4.246 16.182-5.771 16.182h15.391c-1.526 0-6.412-14.448-5.771-16.182 1.211 1.202 4.76 7.89 10.261 8.091 4.487-.002 9.421-2.879 8.974-9.825z"/></defs></svg>