<svg xmlns="http://www.w3.org/2000/svg" xmlns:xlink="http://www.w3.org/1999/xlink" width="222.783" height="323.556" viewBox="0 0 167.087 242.667" xmlns:v="https://vecta.io/nano"><style><![CDATA[.B{fill:#df0000}.C{font-size:32px}.D{word-spacing:0px}.E{font-family:Bitstream Vera Sans}.F{font-weight:400}.G{font-family:Arial}]]></style><path d="M166.837 235.548a6.89 6.89 0 0 1-6.871 6.869H7.111c-3.775 0-6.861-3.092-6.861-6.869V7.12A6.89 6.89 0 0 1 7.111.25h152.855a6.89 6.89 0 0 1 6.871 6.87v228.428z" fill="#fff" stroke-width=".5" stroke="#000"/><text xml:space="preserve" x="-0.987" y="29.203" letter-spacing="0" class="B C D E"><tspan x="-0.987" y="29.203" font-weight="normal" class="G">1</tspan></text><g class="B"><path d="M23.332 32.282c-5.43 0-6.155 5.448-6.155 5.448s-.725-5.448-6.155-5.448c-3.801 0-7.24 2.443-7.24 7.051 0 6.089 11.016 12.213 13.394 21.154C19.44 51.553 30.57 45.422 30.57 39.333c0-4.609-3.439-7.051-7.24-7.051zm120.669 176.964c5.43 0 6.155-5.448 6.155-5.448s.725 5.448 6.155 5.448c3.801 0 7.24-2.443 7.24-7.051 0-6.089-11.016-12.213-13.394-21.154-2.264 8.934-13.394 15.065-13.394 21.154 0 4.609 3.439 7.051 7.24 7.051zM64.728 6.596c-9.012 0-10.216 9.043-10.216 9.043s-1.203-9.043-10.216-9.043c-6.308 0-12.016 4.055-12.016 11.704 0 10.107 18.284 20.271 22.232 35.112C58.27 38.583 76.744 28.407 76.744 18.3c0-7.649-5.708-11.704-12.016-11.704z"/><use xlink:href="#B"/><use xlink:href="#C"/><use xlink:href="#B" y="-67.45"/><use xlink:href="#C" x="57.479" y="-64.636"/><use xlink:href="#B" x="57.478" y="0.599"/><use xlink:href="#C" x="57.479" y="0.598"/><use xlink:href="#B" x="57.478" y="-66.851"/><use xlink:href="#C" x="28.701" y="-32.534"/><use xlink:href="#B" x="28.236" y="-33.103"/><text xml:space="preserve" x="12.287" y="28.96" letter-spacing="0" class="C D E"><tspan x="12.287" y="28.96" font-weight="normal" class="G">0</tspan></text><text xml:space="preserve" x="-167.598" y="-212.06" transform="scale(-1)" letter-spacing="0" class="C D E"><tspan x="-167.598" y="-212.06" font-weight="normal" class="G">1</tspan></text><text xml:space="preserve" x="-154.324" y="-212.302" transform="scale(-1)" letter-spacing="0" class="C D E"><tspan x="-154.324" y="-212.302" font-weight="normal" class="G">0</tspan></text></g><defs ><path id="B" d="M44.297 236.214c9.012 0 10.216-9.043 10.216-9.043s1.203 9.043 10.216 9.043c6.308 0 12.016-4.055 12.016-11.704 0-10.107-18.284-20.271-22.232-35.112-3.757 14.829-22.232 25.005-22.232 35.112 0 7.649 5.708 11.704 12.016 11.704z"/><path id="C" d="M64.728 71.831c-9.012 0-10.216 9.043-10.216 9.043s-1.203-9.043-10.216-9.043c-6.308 0-12.016 4.055-12.016 11.704 0 10.107 18.284 20.271 22.232 35.112 3.757-14.829 22.232-25.005 22.232-35.112 0-7.649-5.708-11.704-12.016-11.704z"/></defs></svg>