<?xml version="1.0" standalone="no"?>
<!DOCTYPE svg PUBLIC "-//W3C//DTD SVG 20010904//EN"
 "http://www.w3.org/TR/2001/REC-SVG-20010904/DTD/svg10.dtd">
<svg version="1.0" xmlns="http://www.w3.org/2000/svg"
 width="1280.000000pt" height="1266.000000pt" viewBox="0 0 1280.000000 1266.000000"
 preserveAspectRatio="xMidYMid meet">
<metadata>
Created by potrace 1.15, written by Peter Selinger 2001-2017
</metadata>
<g transform="translate(0.000000,1266.000000) scale(0.100000,-0.100000)"
fill="#FFC300" stroke="none">
<path d="M1277 12642 c-25 -28 -21 -69 17 -147 19 -40 41 -106 49 -155 20
-107 81 -231 177 -358 38 -51 73 -98 77 -105 3 -6 -49 28 -118 75 -181 124
-410 268 -519 326 -84 44 -110 53 -219 71 -253 43 -519 16 -613 -60 -15 -13
-15 -19 3 -89 42 -165 157 -357 303 -508 125 -129 234 -199 362 -232 32 -8 57
-26 103 -75 82 -88 88 -100 57 -120 -13 -9 -96 -47 -183 -84 -88 -38 -184 -82
-214 -97 l-54 -28 73 -12 c69 -12 102 -26 102 -44 0 -19 -63 -66 -183 -136
-192 -112 -291 -180 -337 -230 -42 -46 -52 -71 -22 -59 34 14 169 18 176 6 5
-7 -19 -40 -61 -84 -38 -40 -85 -100 -105 -133 -101 -166 -126 -383 -78 -674
11 -65 77 -373 86 -399 5 -16 29 27 58 104 63 167 216 414 325 526 63 64 152
129 177 129 8 0 11 -119 9 -472 -2 -500 -7 -571 -55 -746 -60 -218 -186 -398
-361 -514 -94 -62 -199 -198 -252 -324 -104 -247 -64 -528 128 -909 186 -368
269 -471 449 -561 84 -41 105 -48 174 -52 l79 -4 59 73 c71 87 93 96 202 80
103 -16 145 -14 208 9 99 34 152 84 262 247 120 177 143 208 230 297 150 154
319 238 560 279 62 11 91 22 118 43 77 62 160 115 213 135 277 105 495 -92
598 -541 14 -63 17 -133 18 -425 1 -282 4 -371 19 -459 63 -389 186 -755 408
-1216 107 -220 116 -262 125 -540 l5 -185 -87 -210 c-47 -115 -124 -288 -171
-384 l-84 -174 25 -81 c53 -175 59 -218 59 -446 0 -195 -2 -226 -27 -340 -30
-143 -90 -334 -145 -465 l-38 -90 -100 -1 c-163 -2 -272 -50 -394 -173 -168
-170 -206 -372 -99 -527 88 -129 383 -244 738 -289 l54 -7 -59 -31 c-169 -90
-284 -283 -284 -480 0 -234 157 -430 395 -492 31 -8 95 -17 143 -20 48 -4 155
-15 237 -26 617 -80 995 19 1144 300 l33 63 -21 72 c-39 133 -74 320 -72 383
2 78 -11 162 -45 280 -25 88 -25 95 -10 118 21 33 60 33 108 0 20 -14 42 -25
48 -25 21 0 50 83 50 146 0 110 -54 239 -175 414 -125 181 -206 374 -205 489
1 91 28 204 68 281 21 41 68 131 103 200 74 143 89 196 89 319 0 111 -21 193
-99 389 -83 207 -101 277 -101 387 0 71 6 105 26 160 14 39 32 95 39 125 55
222 178 322 396 321 129 0 250 -26 542 -117 133 -41 289 -83 347 -94 294 -54
661 -85 885 -75 552 24 1030 128 1715 374 47 17 98 31 114 31 l29 0 -7 -223
c-12 -363 -52 -640 -113 -773 -52 -114 -53 -214 -8 -574 26 -211 14 -345 -41
-459 -30 -59 -121 -155 -177 -185 -30 -17 -45 -40 -106 -165 -39 -80 -88 -193
-110 -251 l-40 -105 -75 -7 c-138 -13 -234 -52 -323 -132 -172 -155 -205 -409
-75 -574 49 -62 133 -113 255 -155 326 -112 372 -122 577 -121 110 1 162 6
217 21 l71 19 -27 -40 c-128 -187 -94 -454 78 -627 111 -111 219 -154 428
-169 70 -5 180 -17 243 -26 77 -11 185 -17 325 -17 183 -1 223 2 315 22 236
51 386 153 470 320 l22 44 -20 71 c-12 39 -28 109 -37 156 -9 47 -23 108 -31
137 -14 51 -14 52 16 99 37 60 75 174 95 288 8 49 18 92 21 95 3 3 31 6 63 6
l56 0 3 39 c4 48 -23 126 -91 261 -199 398 -192 617 25 835 170 170 307 553
308 856 0 198 -62 459 -151 636 -28 55 -29 64 -29 190 0 339 88 598 389 1147
216 394 241 450 295 669 27 105 52 192 56 192 12 0 20 -55 20 -130 0 -37 8
-105 17 -151 22 -109 21 -298 -2 -489 -10 -80 -18 -210 -18 -290 -1 -125 2
-154 22 -209 l22 -63 -20 -44 c-12 -24 -30 -76 -40 -116 -20 -73 -24 -97 -61
-368 -23 -167 -49 -271 -89 -352 l-29 -56 24 -234 c62 -616 137 -928 268
-1112 25 -36 55 -68 66 -71 28 -9 122 20 205 63 87 46 187 144 243 238 103
174 158 389 198 764 21 200 25 988 5 1090 -17 90 -39 154 -63 185 -17 21 -19
36 -15 78 9 85 -12 258 -58 497 -24 124 -49 268 -55 320 -6 52 -16 127 -22
165 -5 39 -14 334 -18 660 -7 533 -10 601 -28 701 -26 136 -73 286 -119 379
-76 152 -263 396 -433 566 -371 369 -790 580 -1255 629 -282 29 -332 32 -525
27 -331 -9 -537 -41 -1245 -192 -521 -111 -705 -136 -1220 -166 -610 -35
-1250 102 -1829 393 -61 30 -113 61 -117 69 -4 8 -14 39 -23 69 -20 72 -92
179 -211 315 -53 60 -94 116 -93 124 2 8 24 20 51 27 52 13 77 29 77 49 0 21
-132 140 -360 324 -118 95 -263 216 -322 269 -125 110 -131 125 -67 171 l40
30 -38 28 c-22 15 -126 75 -232 133 -106 58 -221 129 -256 158 -86 71 -155
164 -155 208 0 37 14 49 77 62 l38 8 -74 48 c-40 27 -137 78 -215 114 -262
120 -353 185 -434 307 -43 65 -41 89 9 136 l42 39 -46 19 c-111 48 -497 164
-764 231 -35 9 -51 23 -103 88 -228 286 -656 686 -791 740 -116 46 -332 87
-559 107 -67 6 -78 4 -93 -13z m8838 -9094 c21 -24 52 -72 69 -108 29 -60 31
-73 31 -170 -1 -131 -19 -200 -131 -491 -99 -256 -131 -362 -146 -485 -19
-148 11 -287 85 -400 l34 -51 -29 -79 c-63 -175 -198 -418 -346 -626 l-77
-108 -35 8 c-45 9 -104 9 -158 -1 l-42 -7 34 44 c19 25 40 62 47 83 19 54 17
168 -4 230 -18 51 -18 52 3 92 11 23 23 62 27 88 4 31 21 71 50 116 64 98 120
230 211 502 84 252 121 343 176 434 33 55 34 59 39 201 7 151 27 334 53 480
30 169 57 290 65 290 4 0 24 -19 44 -42z"/>
</g>
</svg>
